<?xml version="1.0" encoding="utf-8"?>
<!-- Generator: Adobe Illustrator 25.1.0, SVG Export Plug-In . SVG Version: 6.00 Build 0)  -->
<svg version="1.1" id="Layer_1" xmlns:serif="http://www.serif.com/"
	 xmlns="http://www.w3.org/2000/svg" xmlns:xlink="http://www.w3.org/1999/xlink" x="0px" y="0px" viewBox="0 0 612 612"
	 style="enable-background:new 0 0 612 612;" xml:space="preserve">
<style type="text/css">
	.st0{fill-rule:evenodd;clip-rule:evenodd;fill:#FFFFFF;}
</style>
<path class="st0" d="M304.83,612l0.27,0h-0.09L304.83,612L304.83,612z M306.99,612h-0.09l0.27,0L306.99,612z M303.9,611.99l0.3,0
	h-0.17L303.9,611.99z M307.98,611.99h-0.17l0.3,0L307.98,611.99z M302.99,611.99l0.2,0l-0.16,0H302.99L302.99,611.99z
	 M308.97,611.99l-0.16,0l0.2,0H308.97L308.97,611.99z M309.95,611.97l-0.07,0l0.27,0L309.95,611.97L309.95,611.97z M301.85,611.97
	l0.27,0l-0.07,0L301.85,611.97L301.85,611.97z M310.94,611.96l-0.16,0l0.33,0L310.94,611.96L310.94,611.96z M300.89,611.96l0.33,0
	l-0.16,0L300.89,611.96L300.89,611.96z M311.92,611.94l-0.22,0l0.3-0.01L311.92,611.94z M299.99,611.94l0.3,0.01l-0.22,0
	L299.99,611.94L299.99,611.94z M298.87,611.92l0.27,0.01l-0.05,0L298.87,611.92L298.87,611.92z M312.91,611.92l-0.05,0l0.27-0.01
	L312.91,611.92z M297.89,611.89l0.37,0.01l-0.15,0L297.89,611.89z M313.89,611.9l-0.15,0l0.37-0.01L313.89,611.9z M314.88,611.87
	l-0.24,0.01l0.38-0.01L314.88,611.87L314.88,611.87z M296.99,611.87l0.38,0.01l-0.24-0.01L296.99,611.87L296.99,611.87z
	 M296.13,611.84l0.27,0.01l-0.25-0.01l-0.23-0.01L296.13,611.84z M315.86,611.84l-0.25,0.01l0.27-0.01l0.22-0.01L315.86,611.84z
	 M316.84,611.81l-0.13,0l0.41-0.01L316.84,611.81z M294.88,611.8l0.41,0.01l-0.13,0L294.88,611.8z M293.99,611.77l0.43,0.02
	l-0.24-0.01L293.99,611.77z M317.82,611.78l-0.24,0.01l0.43-0.02L317.82,611.78z M293.11,611.73l0.42,0.02l-0.33-0.01L293.11,611.73
	L293.11,611.73z M318.8,611.74l-0.33,0.01l0.42-0.02L318.8,611.74L318.8,611.74z M291.88,611.68l0.45,0.02l-0.11,0L291.88,611.68z
	 M319.78,611.7l-0.11,0l0.45-0.02L319.78,611.7L319.78,611.7z M290.99,611.64l0.47,0.02l-0.22-0.01L290.99,611.64z M320.76,611.65
	l-0.22,0.01l0.47-0.02L320.76,611.65z M290.12,611.59l0.47,0.02l-0.33-0.02L290.12,611.59z M321.74,611.6l-0.33,0.02l0.47-0.02
	L321.74,611.6z M322.71,611.55l-0.43,0.02l0.38-0.02l0.45-0.03L322.71,611.55L322.71,611.55z M289.33,611.55l0.38,0.02l-0.43-0.02
	l-0.4-0.02L289.33,611.55L289.33,611.55z M323.69,611.5l-0.19,0.01l0.49-0.03L323.69,611.5z M288.02,611.48l0.49,0.03l-0.19-0.01
	L288.02,611.48z M287.15,611.43l0.48,0.03l-0.3-0.02L287.15,611.43L287.15,611.43z M324.66,611.44l-0.3,0.02l0.48-0.03
	L324.66,611.44L324.66,611.44z M286.33,611.38l0.44,0.03l-0.41-0.03l-0.41-0.03L286.33,611.38L286.33,611.38z M325.64,611.38
	l-0.41,0.03l0.44-0.03l0.38-0.02L325.64,611.38L325.64,611.38z M326.61,611.32l-0.15,0.01l0.46-0.03L326.61,611.32L326.61,611.32z
	 M285.07,611.29l0.46,0.03l-0.15-0.01L285.07,611.29z M284.21,611.23l0.45,0.03l-0.25-0.02L284.21,611.23L284.21,611.23z
	 M327.59,611.25l-0.25,0.02l0.45-0.03L327.59,611.25z M283.35,611.17l0.42,0.03l-0.32-0.02L283.35,611.17L283.35,611.17z
	 M328.56,611.18l-0.32,0.02l0.42-0.03L328.56,611.18L328.56,611.18z M282.19,611.09l0.37,0.03l-0.09-0.01L282.19,611.09z
	 M329.53,611.11l-0.09,0.01l0.37-0.03L329.53,611.11z M330.5,611.03l-0.17,0.01l0.37-0.03L330.5,611.03z M281.3,611.02l0.37,0.03
	l-0.17-0.01L281.3,611.02L281.3,611.02z M280.44,610.94l0.32,0.03l-0.22-0.02L280.44,610.94z M331.47,610.95l-0.22,0.02l0.32-0.03
	L331.47,610.95z M279.48,610.86l0.09,0.01l-0.02,0L279.48,610.86L279.48,610.86z M332.44,610.87l-0.02,0l0.09-0.01L332.44,610.87
	L332.44,610.87z M333.41,610.79l-0.09,0.01l0.22-0.02L333.41,610.79L333.41,610.79z M278.46,610.77l0.22,0.02l-0.09-0.01
	L278.46,610.77L278.46,610.77z M277.57,610.69l0.16,0.02l-0.1-0.01L277.57,610.69z M334.37,610.7l-0.1,0.01l0.16-0.02L334.37,610.7z
	 M258.19,608.28C111.98,585.3,0,458.62,0,306C0,137.11,137.11,0,306,0s306,137.11,306,306c0,152.62-111.98,279.3-258.19,302.28
	V394.45h71.3L438.68,306h-84.87v-57.4c0-24.2,11.86-47.79,49.87-47.79h38.59v-75.3c0,0-35.02-5.98-68.5-5.98
	c-69.9,0-115.58,42.36-115.58,119.05V306h-77.7v88.45h77.7V608.28z"/>
</svg>
