<?xml version="1.0" encoding="utf-8"?>
<!-- Generator: Adobe Illustrator 25.1.0, SVG Export Plug-In . SVG Version: 6.00 Build 0)  -->
<svg version="1.1" id="Layer_1" xmlns="http://www.w3.org/2000/svg" xmlns:xlink="http://www.w3.org/1999/xlink" x="0px" y="0px"
	 viewBox="0 0 169.71 520.07" style="enable-background:new 0 0 169.71 520.07;" xml:space="preserve">
<style type="text/css">
	.st0{fill:none;stroke:#000000;stroke-width:2;stroke-miterlimit:10;}
	.st1{fill:none;stroke:#000000;stroke-width:2;stroke-miterlimit:10;stroke-dasharray:11.9479,11.9479;}
</style>
<g>
	<path d="M18.58,34.98l8.06-12.95c0.03-0.04,0.05-0.09,0.07-0.13c1.39-2.27,2.13-4.86,2.13-7.51C28.83,6.46,22.37,0,14.44,0
		S0.04,6.46,0.04,14.39c0,2.65,0.74,5.24,2.13,7.51c0.02,0.04,0.03,0.08,0.06,0.12l7.77,13C3.96,35.87,0,38.35,0,41.36
		C0,45.08,6.33,48,14.42,48s14.42-2.92,14.42-6.64C28.83,38.33,24.68,35.8,18.58,34.98z M3.62,21.18c-1.28-2.04-1.96-4.39-1.96-6.78
		c0-7.05,5.73-12.78,12.78-12.78c7.05,0,12.78,5.73,12.78,12.78c0,2.39-0.68,4.74-1.96,6.78c-0.03,0.04-0.05,0.09-0.07,0.13
		l-8.51,13.68c-0.13,0.2-0.15,0.24-0.31,0.5l-2.15,3.46L3.69,21.32C3.67,21.27,3.65,21.22,3.62,21.18z M14.42,46.39
		c-7.55,0-12.8-2.65-12.8-5.03c0-2.16,3.96-4.2,9.29-4.83l2.62,4.38c0.14,0.24,0.4,0.39,0.68,0.39c0,0,0,0,0.01,0
		c0.28,0,0.54-0.14,0.68-0.38l2.75-4.42c5.41,0.59,9.58,2.67,9.58,4.86C27.22,43.74,21.96,46.39,14.42,46.39z"/>
	<path d="M19.65,14.39c0-2.89-2.35-5.23-5.23-5.23s-5.23,2.35-5.23,5.23s2.35,5.23,5.23,5.23C17.3,19.63,19.65,17.28,19.65,14.39z
		 M10.79,14.39c0-2,1.62-3.62,3.62-3.62s3.62,1.62,3.62,3.62s-1.62,3.62-3.62,3.62S10.79,16.39,10.79,14.39z"/>
</g>
<g>
	<path d="M155.49,502.01l11.18-17.97c0.04-0.06,0.07-0.12,0.09-0.18c1.93-3.15,2.95-6.74,2.95-10.41c0-11.01-8.96-19.97-19.97-19.97
		c-11.01,0-19.97,8.96-19.97,19.97c0,3.67,1.02,7.27,2.95,10.42c0.02,0.06,0.05,0.11,0.08,0.16l10.78,18.03
		c-8.36,1.18-13.87,4.62-13.87,8.79c0,5.17,8.79,9.22,20,9.22c11.21,0,20-4.05,20-9.22C169.71,506.66,163.95,503.14,155.49,502.01z
		 M134.72,482.85c-1.78-2.84-2.72-6.09-2.72-9.41c0-9.78,7.96-17.73,17.73-17.73c9.78,0,17.73,7.96,17.73,17.73
		c0,3.32-0.94,6.58-2.72,9.41c-0.04,0.06-0.07,0.12-0.09,0.19l-11.81,18.98c-0.18,0.27-0.21,0.33-0.43,0.69l-2.98,4.79l-14.61-24.45
		C134.8,482.99,134.76,482.92,134.72,482.85z M149.71,517.83c-10.47,0-17.76-3.68-17.76-6.98c0-3,5.49-5.82,12.88-6.69l3.63,6.08
		c0.2,0.33,0.56,0.54,0.95,0.54c0,0,0.01,0,0.01,0c0.39,0,0.75-0.2,0.95-0.53l3.82-6.14c7.51,0.81,13.29,3.71,13.29,6.74
		C167.47,514.15,160.17,517.83,149.71,517.83z"/>
	<path d="M156.97,473.44c0-4-3.26-7.26-7.26-7.26s-7.26,3.26-7.26,7.26c0,4,3.26,7.26,7.26,7.26S156.97,477.45,156.97,473.44z
		 M144.68,473.44c0-2.77,2.25-5.03,5.03-5.03s5.03,2.25,5.03,5.03c0,2.77-2.25,5.03-5.03,5.03S144.68,476.21,144.68,473.44z"/>
</g>
<g>
	<path class="st0" d="M34.13,46.67c1.98,0.49,3.92,1,5.81,1.51"/>
	<path class="st1" d="M51.38,51.62c148.6,49.03-21.72,181.64-3.46,283.86c16.93,94.8,47.99,137.82,63.17,153.9"/>
	<path class="st0" d="M115.32,493.59c2.9,2.7,4.6,3.85,4.6,3.85"/>
</g>
<polyline class="st0" points="107.66,500.44 126.94,504.85 124.71,487.65 "/>
</svg>
