<?xml version="1.0" encoding="utf-8"?>
<!-- Generator: Adobe Illustrator 25.1.0, SVG Export Plug-In . SVG Version: 6.00 Build 0)  -->
<svg version="1.1" id="Layer_1" xmlns:sketch="http://www.bohemiancoding.com/sketch/ns"
	 xmlns="http://www.w3.org/2000/svg" xmlns:xlink="http://www.w3.org/1999/xlink" x="0px" y="0px" viewBox="0 0 33.23 33.23"
	 style="enable-background:new 0 0 33.23 33.23;" xml:space="preserve">
<style type="text/css">
	.st0{fill-rule:evenodd;clip-rule:evenodd;fill:#FFFFFF;}
</style>
<desc></desc>
<g id="black">
	<g id="slice" transform="translate(-800.000000, -400.000000)">
	</g>
	<g id="whatsapp" transform="translate(13.000000, 13.000000)">
		<path class="st0" d="M3.92,19.37c-2.86,0-5.55-0.73-7.89-2.01L-13,20.23l2.94-8.69c-1.49-2.44-2.34-5.3-2.34-8.36
			C-12.4-5.75-5.09-13,3.92-13c9.01,0,16.31,7.25,16.31,16.19S12.93,19.37,3.92,19.37z M3.92-10.42C-3.65-10.42-9.8-4.32-9.8,3.19
			c0,2.98,0.97,5.74,2.61,7.98l-1.71,5.05l5.27-1.68c2.17,1.42,4.76,2.25,7.55,2.25c7.56,0,13.72-6.1,13.72-13.61
			S11.48-10.42,3.92-10.42L3.92-10.42z M12.15,6.92c-0.1-0.17-0.37-0.26-0.77-0.46c-0.4-0.2-2.37-1.16-2.73-1.29
			c-0.37-0.13-0.63-0.2-0.9,0.2c-0.27,0.4-1.03,1.29-1.27,1.56c-0.23,0.27-0.47,0.3-0.87,0.1c-0.4-0.2-1.69-0.62-3.22-1.97
			C1.22,3.99,0.42,2.7,0.18,2.3c-0.23-0.4-0.02-0.61,0.18-0.81c0.18-0.18,0.4-0.46,0.6-0.69c0.2-0.23,0.27-0.4,0.4-0.66
			c0.13-0.26,0.07-0.5-0.03-0.7c-0.1-0.2-0.9-2.15-1.23-2.95c-0.33-0.79-0.67-0.66-0.9-0.66c-0.23,0-0.5-0.03-0.77-0.03
			c-0.27,0-0.7,0.1-1.07,0.5c-0.37,0.4-1.4,1.36-1.4,3.31c0,1.95,1.43,3.84,1.63,4.1c0.2,0.26,2.77,4.4,6.83,5.99
			c4.07,1.59,4.07,1.06,4.8,0.99c0.73-0.07,2.36-0.96,2.7-1.89C12.25,7.88,12.25,7.08,12.15,6.92L12.15,6.92z"/>
	</g>
</g>
</svg>
