<?xml version="1.0" encoding="utf-8"?>
<!-- Generator: Adobe Illustrator 25.1.0, SVG Export Plug-In . SVG Version: 6.00 Build 0)  -->
<svg version="1.1" id="Layer_1" xmlns="http://www.w3.org/2000/svg" xmlns:xlink="http://www.w3.org/1999/xlink" x="0px" y="0px"
	 viewBox="0 0 281.6 500" style="enable-background:new 0 0 281.6 500;" xml:space="preserve">
<style type="text/css">
	.st0{fill:#FFFFFF;}
</style>
<g>
	<path class="st0" d="M140.7,0C119,0,97.3,5.3,78.4,16c-33.9,19.2-57.9,55.3-61.9,94.1c-3.7,36.1,8.9,71.8,22,105.7
		c15.1,38.9,102.1,228.9,102.1,228.9s87.6-191.4,102.8-230.9c13.1-34.2,25.7-70.2,21.2-106.5c-5.2-42.1-34.7-79.9-73.6-96.8
		C175.3,3.5,158,0,140.7,0z M140.7,183.8c-33,0-59.8-26.8-59.8-59.8s26.8-59.8,59.8-59.8S200.5,91,200.5,124
		S173.8,183.8,140.7,183.8z"/>
	<path id="XMLID_1_" class="st0" d="M177,391.1c-4.1,8.9-7.9,17.2-11.4,24.7c36.8,3.6,63.6,15.2,63.6,28.8c0,16.6-39.6,30-88.4,30
		s-88.4-13.4-88.4-30c0-13.6,26.8-25.2,63.5-28.8c-3.5-7.4-7.4-15.8-11.4-24.7C44.3,397.4,0,419,0,444.6C0,475.2,63.1,500,140.8,500
		s140.8-24.8,140.8-55.4C281.6,419,237.2,397.4,177,391.1z"/>
</g>
</svg>
