<?xml version="1.0" encoding="utf-8"?>
<!-- Generator: Adobe Illustrator 25.1.0, SVG Export Plug-In . SVG Version: 6.00 Build 0)  -->
<svg version="1.1" id="Layer_1" xmlns="http://www.w3.org/2000/svg" xmlns:xlink="http://www.w3.org/1999/xlink" x="0px" y="0px"
	 viewBox="0 0 35.24 77.24" style="enable-background:new 0 0 35.24 77.24;" xml:space="preserve">
<path d="M5.28,47.03C5.21,48.35,1.19,49.33,0,46.6c0,0-0.43-26.13,8.17-31.06c4.15-2.38,15.05-2.47,19.15,0
	c7.91,4.77,7.91,30.98,7.91,30.98c-0.51,3.15-4.47,2.37-4.6,1.19c-2.17-20.79-4.43-24-4.43-24L26.3,75.8c0,0-0.57,1.45-3.7,1.45
	c-2.43,0-3.45-1.45-3.45-1.45l0.17-25.19h-3.15L16.09,75.8c0,0-0.89,1.45-3.57,1.45c-2.81,0-3.4-1.45-3.4-1.45l0.17-52.26
	C9.28,23.54,6.22,28.73,5.28,47.03z"/>
<circle cx="17.62" cy="6.72" r="6.72"/>
</svg>
